<svg width="52" height="18" viewBox="0 0 52 18" fill="none" xmlns="http://www.w3.org/2000/svg">
<path d="M17.3783 14.2945H16.7928L14.7158 0.944336H8.15291L6.07305 14.2945H5.49046L4.06019 0.944336H-0.000488281L2.27454 17.056H9.06175L11.1416 3.70582H11.7271L13.8041 17.056H20.5942L22.8663 0.944336H18.8085L17.3783 14.2945Z" fill="#E0E0E0"/>
<path d="M24.8091 6.46733V17.056H28.9018V4.23015H33.1868V17.056H37.2795V4.23015H41.5645V17.056H45.6572V6.46733V0.944336H24.8091V6.46733Z" fill="#E0E0E0"/>
<path d="M47.1719 1.3638H47.8856V3.39124H48.3487V1.3638H49.0595V0.944336H47.1719V1.3638Z" fill="#E0E0E0"/>
<path d="M51.1403 0.944336L50.7179 3.07663H50.6567L50.2314 0.944336H49.375V3.39124H49.8236V1.28223H49.8877L50.3072 3.39124H51.0674L51.4869 1.28223H51.551V3.39124H51.9996V0.944336H51.1403Z" fill="#E0E0E0"/>
</svg>
