<svg width="413" height="460" viewBox="0 0 413 460" fill="none" xmlns="http://www.w3.org/2000/svg">
<g clip-path="url(#clip0_4_14)">
<rect width="413" height="460" rx="34" fill="#0092AA"/>
<path d="M101.352 112.691L164 50.043L148.334 34.3765L85.6853 97.0247L101.352 112.691Z" fill="#001C21"/>
<path d="M54.3655 191L117.014 128.352L101.347 112.685L38.6991 175.333L54.3655 191Z" fill="#001C21"/>
<path d="M70.0296 81.3649L132.678 18.7168L117.011 3.05032L54.3631 65.6985L70.0296 81.3649Z" fill="#001C21"/>
<path d="M23.0433 159.674L85.6914 97.0254L70.025 81.359L7.37685 144.007L23.0433 159.674Z" fill="#001C21"/>
<path d="M38.6976 50.029L101.346 -12.6191L85.6792 -28.2856L23.0311 34.3625L38.6976 50.029Z" fill="#001C21"/>
<path d="M-8.28106 128.346L54.3672 65.6973L38.7007 50.0308L-23.9475 112.679L-8.28106 128.346Z" fill="#001C21"/>
<path d="M7.37335 18.7009L70.0215 -43.9473L54.3551 -59.6137L-8.29307 3.03445L7.37335 18.7009Z" fill="#001C21"/>
<path d="M-39.6033 97.0193L23.0449 34.3711L7.37845 18.7046L-55.2698 81.3529L-39.6033 97.0193Z" fill="#001C21"/>
<path d="M257.621 112.691L320.27 50.043L304.603 34.3765L241.955 97.0247L257.621 112.691Z" fill="#001C21"/>
<path d="M210.635 191L273.283 128.352L257.617 112.685L194.969 175.333L210.635 191Z" fill="#001C21"/>
<path d="M226.299 81.3649L288.947 18.7168L273.281 3.05032L210.633 65.6985L226.299 81.3649Z" fill="#001C21"/>
<path d="M179.313 159.674L241.961 97.0254L226.295 81.359L163.646 144.007L179.313 159.674Z" fill="#001C21"/>
<path d="M194.967 50.029L257.615 -12.6191L241.949 -28.2856L179.301 34.3625L194.967 50.029Z" fill="#001C21"/>
<path d="M147.988 128.346L210.637 65.6973L194.97 50.0308L132.322 112.679L147.988 128.346Z" fill="#001C21"/>
<path d="M163.643 18.7009L226.291 -43.9473L210.625 -59.6137L147.976 3.03445L163.643 18.7009Z" fill="#001C21"/>
<path d="M116.666 97.0193L179.314 34.3711L163.648 18.7046L101 81.3529L116.666 97.0193Z" fill="#001C21"/>
<path d="M413.891 112.691L476.539 50.043L460.873 34.3765L398.224 97.0247L413.891 112.691Z" fill="#001C21"/>
<path d="M366.905 191L429.553 128.352L413.886 112.685L351.238 175.333L366.905 191Z" fill="#001C21"/>
<path d="M382.569 81.3649L445.217 18.7168L429.55 3.05032L366.902 65.6985L382.569 81.3649Z" fill="#001C21"/>
<path d="M335.582 159.674L398.23 97.0254L382.564 81.359L319.916 144.007L335.582 159.674Z" fill="#001C21"/>
<path d="M351.237 50.029L413.885 -12.6191L398.218 -28.2856L335.57 34.3625L351.237 50.029Z" fill="#001C21"/>
<path d="M304.258 128.346L366.906 65.6973L351.24 50.0308L288.592 112.679L304.258 128.346Z" fill="#001C21"/>
<path d="M319.912 18.7009L382.561 -43.9473L366.894 -59.6137L304.246 3.03445L319.912 18.7009Z" fill="#001C21"/>
<path d="M272.936 97.0193L335.584 34.3711L319.918 18.7046L257.269 81.3529L272.936 97.0193Z" fill="#001C21"/>
</g>
<defs>
<clipPath id="clip0_4_14">
<rect width="413" height="460" rx="34" fill="white"/>
</clipPath>
</defs>
</svg>
