<svg width="413" height="460" viewBox="0 0 413 460" fill="none" xmlns="http://www.w3.org/2000/svg">
<g clip-path="url(#clip0_4_277)">
<rect width="413" height="460" rx="34" fill="black"/>
<path d="M101.567 244.918L83.5729 235.012L158.776 65.0767L42.0466 212.149L24.0526 202.243L99.2556 32.3076L-17.4737 179.38L-35.4677 169.473L39.7352 -0.461544L-83.3132 154.581L-100.013 142.537L73.6467 -76.2852L91.6407 -66.3785L16.4377 103.556L133.167 -43.516L151.161 -33.6094L75.9581 136.326L192.687 -10.7469L210.681 -0.840278L135.478 169.095L258.527 14.0517L275.226 26.0963L101.567 244.918Z" fill="#FF3C2A"/>
<path d="M357.211 244.918L339.217 235.012L414.42 65.0767L297.691 212.149L279.697 202.243L354.9 32.3076L238.171 179.38L220.177 169.473L295.38 -0.461544L172.331 154.581L155.632 142.537L329.291 -76.2852L347.285 -66.3785L272.082 103.556L388.812 -43.516L406.806 -33.6094L331.603 136.326L448.332 -10.7469L466.326 -0.840278L391.123 169.095L514.171 14.0517L530.871 26.0963L357.211 244.918Z" fill="#FF3C2A"/>
</g>
<defs>
<clipPath id="clip0_4_277">
<rect width="413" height="460" rx="34" fill="white"/>
</clipPath>
</defs>
</svg>
