<svg width="413" height="460" viewBox="0 0 413 460" fill="none" xmlns="http://www.w3.org/2000/svg">
<g clip-path="url(#clip0_4_229)">
<rect width="413" height="460" rx="32" fill="black"/>
<path d="M89.5001 -37.3298L59.6656 -7.4953L89.5001 22.3392L119.335 -7.49531L89.5001 -37.3298Z" fill="#001C21"/>
<path d="M89.4893 22.3249L59.6548 52.1594L89.4892 81.9939L119.324 52.1594L89.4893 22.3249Z" fill="#001C21"/>
<path d="M89.5001 81.9796L59.6656 111.814L89.5001 141.649L119.335 111.814L89.5001 81.9796Z" fill="#001C21"/>
<path d="M149.166 22.3249L119.331 52.1594L149.166 81.9939L179 52.1594L149.166 22.3249Z" fill="#001C21"/>
<path d="M149.166 81.9796L119.331 111.814L149.166 141.649L179 111.814L149.166 81.9796Z" fill="#001C21"/>
<path d="M29.8345 22.3141L0 52.1486L29.8345 81.9831L59.669 52.1486L29.8345 22.3141Z" fill="#001C21"/>
<path d="M29.8345 81.9903L0 111.825L29.8345 141.659L59.669 111.825L29.8345 81.9903Z" fill="#001C21"/>
<path d="M89.5001 141.645L59.6656 171.48L89.5001 201.314L119.335 171.48L89.5001 141.645Z" fill="#001C21"/>
<path d="M208.5 -37.3298L178.666 -7.4953L208.5 22.3392L238.335 -7.49531L208.5 -37.3298Z" fill="#001C21"/>
<path d="M208.489 22.3249L178.655 52.1594L208.489 81.9939L238.324 52.1594L208.489 22.3249Z" fill="#001C21"/>
<path d="M208.5 81.9796L178.666 111.814L208.5 141.649L238.335 111.814L208.5 81.9796Z" fill="#001C21"/>
<path d="M268.166 22.3249L238.331 52.1594L268.166 81.9939L298 52.1594L268.166 22.3249Z" fill="#001C21"/>
<path d="M268.166 81.9796L238.331 111.814L268.166 141.649L298 111.814L268.166 81.9796Z" fill="#001C21"/>
<path d="M148.834 22.3141L119 52.1486L148.834 81.9831L178.669 52.1486L148.834 22.3141Z" fill="#001C21"/>
<path d="M148.834 81.9903L119 111.825L148.834 141.659L178.669 111.825L148.834 81.9903Z" fill="#001C21"/>
<path d="M208.5 141.645L178.666 171.48L208.5 201.314L238.335 171.48L208.5 141.645Z" fill="#001C21"/>
<path d="M327.5 -37.3298L297.666 -7.4953L327.5 22.3392L357.335 -7.49531L327.5 -37.3298Z" fill="#001C21"/>
<path d="M327.489 22.3249L297.655 52.1594L327.489 81.9939L357.324 52.1594L327.489 22.3249Z" fill="#001C21"/>
<path d="M327.5 81.9796L297.666 111.814L327.5 141.649L357.335 111.814L327.5 81.9796Z" fill="#001C21"/>
<path d="M387.166 22.3249L357.331 52.1594L387.166 81.9939L417 52.1594L387.166 22.3249Z" fill="#001C21"/>
<path d="M387.166 81.9796L357.331 111.814L387.166 141.649L417 111.814L387.166 81.9796Z" fill="#001C21"/>
<path d="M267.834 22.3141L238 52.1486L267.834 81.9831L297.669 52.1486L267.834 22.3141Z" fill="#001C21"/>
<path d="M267.834 81.9903L238 111.825L267.834 141.659L297.669 111.825L267.834 81.9903Z" fill="#001C21"/>
<path d="M327.5 141.645L297.666 171.48L327.5 201.314L357.335 171.48L327.5 141.645Z" fill="#001C21"/>
</g>
<defs>
<clipPath id="clip0_4_229">
<rect width="413" height="460" rx="32" fill="white"/>
</clipPath>
</defs>
</svg>
