<svg width="46" height="62" viewBox="0 0 46 62" fill="none" xmlns="http://www.w3.org/2000/svg">
<path d="M23.001 0.000939488L15.334 7.66795L23.001 15.335L30.668 7.66795L23.001 0.000939488Z" fill="#061D21"/>
<path d="M22.999 15.331L15.332 22.998L22.999 30.665L30.6661 22.998L22.999 15.331Z" fill="#061D21"/>
<path d="M23.001 30.6611L15.334 38.3281L23.001 45.9951L30.668 38.3281L23.001 30.6611Z" fill="#061D21"/>
<path d="M38.333 15.333L30.666 23L38.333 30.667L46 23L38.333 15.333Z" fill="#061D21"/>
<path d="M38.3311 30.6631L30.6641 38.3301L38.3311 45.9971L45.9981 38.3301L38.3311 30.6631Z" fill="#061D21"/>
<path d="M7.66896 15.3291L0.00195312 22.9961L7.66897 30.6631L15.336 22.9961L7.66896 15.3291Z" fill="#061D21"/>
<path d="M7.66701 30.6631L0 38.3301L7.66701 45.9971L15.334 38.3301L7.66701 30.6631Z" fill="#061D21"/>
<path d="M22.999 45.9951L15.332 53.6621L22.999 61.3291L30.6661 53.6621L22.999 45.9951Z" fill="#061D21"/>
</svg>
