<?xml version="1.0" encoding="UTF-8" standalone="no"?>
<!-- Created with Inkscape (http://www.inkscape.org/) -->

<svg
   version="1.1"
   id="svg1"
   width="392.57333"
   height="515.29333"
   viewBox="0 0 392.57333 515.29333"
   sodipodi:docname="ae1952c0-0b24-402e-903b-b19418cd82f4.eps"
   xmlns:inkscape="http://www.inkscape.org/namespaces/inkscape"
   xmlns:sodipodi="http://sodipodi.sourceforge.net/DTD/sodipodi-0.dtd"
   xmlns="http://www.w3.org/2000/svg"
   xmlns:svg="http://www.w3.org/2000/svg">
  <defs
     id="defs1" />
  <sodipodi:namedview
     id="namedview1"
     pagecolor="#ffffff"
     bordercolor="#000000"
     borderopacity="0.25"
     inkscape:showpageshadow="2"
     inkscape:pageopacity="0.0"
     inkscape:pagecheckerboard="0"
     inkscape:deskcolor="#d1d1d1">
    <inkscape:page
       x="0"
       y="0"
       inkscape:label="1"
       id="page1"
       width="392.57333"
       height="515.29333"
       margin="0"
       bleed="0" />
  </sodipodi:namedview>
  <g
     id="g1"
     inkscape:groupmode="layer"
     inkscape:label="1">
    <g
       id="group-R5">
      <path
         id="path2"
         d="m 1632.72,1630.78 c -510.14,0 -923.693,436.65 -923.693,975.28 0,538.63 413.553,975.28 923.693,975.28 510.15,0 814.67,-441.11 814.67,-979.74 0,-538.63 -304.52,-970.82 -814.67,-970.82 m 1264.07,953.61 c -44.37,644.47 -536.72,1165 -1147.07,1212.19 -177.03,13.69 -551.55,21.99 -726.95,-32.69 -547.332,-170.62 -830.547,-674.35 -830.547,-1248.55 0,-243.03 282.382,-499.23 391.347,-694.48 l -0.093,-0.02 c 0,0 8.05,-14.49 10.453,-18.64 L 1323.41,59.6797 c 0,0 262,-1.7109 342.36,-1.7109 28.15,0 70.6,7.1406 120.44,81.9292 l 43.99,78.473 887.89,1583.829 c 2.4,4.15 10.45,18.64 10.45,18.64 l -0.1,0.02 c 123.47,221.23 187.6,483.8 168.35,763.53"
         style="fill:#ac121b;fill-opacity:1;fill-rule:nonzero;stroke:none"
         transform="matrix(0.13333333,0,0,-0.13333333,0,515.29333)" />
      <path
         id="path3"
         d="m 709.027,2606.06 c 0,242.24 83.68,463.82 222.137,634.36 H 372.027 C 252.875,3031.05 192.223,2780.77 192.223,2515.34 c 0,-131.73 82.988,-267.31 176.328,-394.98 h 462.996 c -77.938,143.01 -122.52,308.86 -122.52,485.7"
         style="fill:#ac121b;fill-opacity:1;fill-rule:nonzero;stroke:none"
         transform="matrix(0.13333333,0,0,-0.13333333,0,515.29333)" />
      <path
         id="path4"
         d="m 1448.88,1650.1 c -260.4,55.53 -481.114,226.69 -611.982,460.56 h 0.079 c 130.914,-233.92 351.683,-405.05 612.163,-460.5 -0.09,-0.02 -0.17,-0.04 -0.26,-0.06"
         style="fill:#ac121b;fill-opacity:1;fill-rule:nonzero;stroke:none"
         transform="matrix(0.13333333,0,0,-0.13333333,0,515.29333)" />
      <path
         id="path5"
         d="m 1265.03,1630.78 c -338.858,0 -635.092,192.65 -795.823,479.88 h 367.691 c 130.868,-233.87 351.582,-405.03 611.982,-460.56 -59.42,-12.67 -120.89,-19.32 -183.85,-19.32"
         style="fill:#740103;fill-opacity:1;fill-rule:nonzero;stroke:none"
         transform="matrix(0.13333333,0,0,-0.13333333,0,515.29333)" />
      <path
         id="path6"
         d="m 1470.27,3786.36 c -29.1,4.5 -58.55,7.92 -88.24,10.22 -31.43,2.43 -62.77,3.63 -93.71,3.63 -13.77,0 -27.52,-0.24 -41.17,-0.71 70.45,5.18 145.78,7.22 218.41,7.22 0.52,0 1.06,0 1.57,0 1.07,-6.78 2.12,-13.57 3.14,-20.36"
         style="fill:#740103;fill-opacity:1;fill-rule:nonzero;stroke:none"
         transform="matrix(0.13333333,0,0,-0.13333333,0,515.29333)" />
      <path
         id="path7"
         d="m 939.164,3250.13 h -0.078 c 130.714,156.82 308.374,268.93 509.794,311.89 0.06,-0.02 0.12,-0.03 0.17,-0.04 -201.44,-42.93 -379.14,-155.03 -509.886,-311.85"
         style="fill:#ac121b;fill-opacity:1;fill-rule:nonzero;stroke:none"
         transform="matrix(0.13333333,0,0,-0.13333333,0,515.29333)" />
      <path
         id="path8"
         d="M 939.086,3250.13 H 571.395 c 169.277,203.08 417.269,331.21 693.635,331.21 62.96,0 124.43,-6.65 183.85,-19.32 -201.42,-42.96 -379.08,-155.07 -509.794,-311.89"
         style="fill:#740103;fill-opacity:1;fill-rule:nonzero;stroke:none"
         transform="matrix(0.13333333,0,0,-0.13333333,0,515.29333)" />
      <path
         id="path9"
         d="m 1665.77,57.9688 c -80.36,0 -342.36,1.7109 -342.36,1.7109 l -0.36,0.8594 v 0 l 0.36,-0.8594 c 0,0 262,-1.7109 342.36,-1.7109 19.84,0 46.77,3.5429 78.39,31.8007 -31.62,-28.2578 -58.55,-31.8007 -78.39,-31.8007 M 1830.2,218.371 v 0 L 2004.33,528.988 1830.2,218.371"
         style="fill:#db999d;fill-opacity:1;fill-rule:nonzero;stroke:none"
         transform="matrix(0.13333333,0,0,-0.13333333,0,515.29333)" />
      <path
         id="path10"
         d="m 1665.77,57.9688 c -80.36,0 -342.36,1.7109 -342.36,1.7109 l -0.36,0.8594 c 25.95,5.832 58.7,24.1797 95.47,79.3589 l 43.98,78.473 174.14,310.617 h 367.69 L 1830.2,218.371 1786.21,139.898 c -14.72,-22.089 -28.8,-38.277 -42.05,-50.1285 -31.62,-28.2578 -58.55,-31.8007 -78.39,-31.8007"
         style="fill:#940b11;fill-opacity:1;fill-rule:nonzero;stroke:none"
         transform="matrix(0.13333333,0,0,-0.13333333,0,515.29333)" />
      <path
         id="path11"
         d="m 1826.5,3788.08 c -0.04,0 -0.01,0 -0.04,0 h 0.04 m -1.8,0.26 c -0.04,0 -0.14,0.02 -0.18,0.02 0.05,0 0.13,-0.02 0.18,-0.02 m -0.71,0.1 c -0.03,0 -0.11,0.01 -0.15,0.02 0.06,-0.01 0.1,-0.01 0.15,-0.02 m -1.08,0.15 c -0.07,0.01 -0.19,0.03 -0.26,0.04 0.1,-0.02 0.15,-0.02 0.26,-0.04 m -0.71,0.1 c -0.11,0.02 -0.22,0.03 -0.33,0.05 0.13,-0.02 0.2,-0.03 0.33,-0.05 m -0.74,0.1 c -0.22,0.03 -0.44,0.07 -0.66,0.1 0.21,-0.03 0.45,-0.07 0.66,-0.1 m -1.02,0.15 c -0.15,0.02 -0.28,0.04 -0.42,0.06 0.13,-0.02 0.29,-0.05 0.42,-0.06 m -0.78,0.1 c -0.18,0.03 -0.37,0.05 -0.55,0.08 0.18,-0.03 0.37,-0.05 0.55,-0.08 m -0.9,0.13 c -0.18,0.03 -0.4,0.05 -0.59,0.08 0.21,-0.03 0.38,-0.05 0.59,-0.08 m -0.87,0.12 c -0.22,0.03 -0.37,0.05 -0.59,0.08 0.21,-0.03 0.38,-0.05 0.59,-0.08 m -0.77,0.1 c -0.3,0.04 -0.49,0.07 -0.78,0.11 0.26,-0.04 0.51,-0.07 0.78,-0.11 m -0.96,0.13 c -0.22,0.03 -0.43,0.06 -0.65,0.09 0.21,-0.03 0.44,-0.06 0.65,-0.09 m -0.83,0.12 c -0.55,0.07 -1.09,0.14 -1.64,0.22 0.55,-0.08 1.09,-0.15 1.64,-0.22 m -1.75,0.23 c -0.25,0.03 -0.54,0.07 -0.8,0.11 0.26,-0.04 0.54,-0.08 0.8,-0.11 m -0.83,0.11 c -0.58,0.07 -1.13,0.15 -1.72,0.23 0.58,-0.08 1.15,-0.16 1.72,-0.23 m -1.77,0.23 c -20.29,2.65 -40.69,4.78 -61.26,6.37 -2.33,0.18 -4.69,0.36 -7.09,0.53 2.4,-0.17 4.76,-0.35 7.09,-0.53 20.56,-1.59 40.98,-3.72 61.26,-6.37"
         style="fill:#db999d;fill-opacity:1;fill-rule:nonzero;stroke:none"
         transform="matrix(0.13333333,0,0,-0.13333333,0,515.29333)" />
      <path
         id="path12"
         d="m 2757.81,3096.07 h -367.64 c -180.2,360.93 -515.28,624.19 -909.84,688.7 -1.09,7.31 -2.2,14.62 -3.34,21.93 101.64,-0.31 197.22,-4.5 265.64,-9.59 2.4,-0.17 4.76,-0.35 7.09,-0.53 20.57,-1.59 40.97,-3.72 61.26,-6.37 0.02,0 0.02,0 0.05,0 0.59,-0.08 1.14,-0.16 1.72,-0.23 h 0.03 c 0.26,-0.04 0.55,-0.08 0.8,-0.11 0.03,0 0.08,-0.01 0.11,-0.01 0.55,-0.08 1.09,-0.15 1.64,-0.22 0.08,-0.01 0.1,-0.02 0.18,-0.03 0.22,-0.03 0.43,-0.06 0.65,-0.09 0.05,0 0.13,-0.01 0.18,-0.02 0.29,-0.04 0.48,-0.07 0.78,-0.11 0.05,0 0.13,-0.01 0.18,-0.02 0.22,-0.03 0.37,-0.05 0.59,-0.08 0.08,-0.01 0.21,-0.03 0.28,-0.04 0.19,-0.03 0.41,-0.05 0.59,-0.08 0.1,-0.02 0.24,-0.03 0.35,-0.05 0.18,-0.03 0.37,-0.05 0.55,-0.08 0.13,-0.01 0.22,-0.03 0.36,-0.04 0.14,-0.02 0.27,-0.04 0.42,-0.06 0.13,-0.02 0.23,-0.03 0.36,-0.05 0.22,-0.03 0.44,-0.07 0.66,-0.1 0.13,-0.01 0.28,-0.04 0.41,-0.05 0.11,-0.02 0.22,-0.03 0.33,-0.05 0.13,-0.02 0.32,-0.05 0.45,-0.06 0.07,-0.01 0.19,-0.03 0.26,-0.04 0.29,-0.04 0.64,-0.09 0.93,-0.13 0.04,-0.01 0.12,-0.02 0.15,-0.02 0.19,-0.03 0.35,-0.05 0.53,-0.08 0.04,0 0.14,-0.02 0.18,-0.02 0.6,-0.09 1.15,-0.17 1.76,-0.26 0.03,0 0,0 0.04,0 403.86,-58.31 747.84,-324.55 931.31,-692.01"
         style="fill:#940b11;fill-opacity:1;fill-rule:nonzero;stroke:none"
         transform="matrix(0.13333333,0,0,-0.13333333,0,515.29333)" />
      <path
         id="path13"
         d="m 1265.03,1630.78 c -510.139,0 -923.694,436.65 -923.694,975.28 0,538.63 413.555,975.28 923.694,975.28 510.15,0 923.7,-436.65 923.7,-975.28 0,-538.63 -413.55,-975.28 -923.7,-975.28 m 1264.06,953.61 c -44.36,644.47 -536.71,1165 -1147.06,1212.19 -729.464,56.39 -1337.8659,-551.79 -1337.8659,-1310 0,-243.03 62.7499,-470.47 171.7149,-665.72 l -0.094,-0.02 c 0,0 8.051,-14.49 10.449,-18.64 L 1114.13,218.371 1154.12,147.02 c 25.29,-46.219 63.6,-89.0512 143.96,-89.0512 28.15,0 70.6,7.1406 120.44,81.9292 l 43.98,78.473 887.9,1583.829 c 2.4,4.15 10.45,18.64 10.45,18.64 l -0.1,0.02 c 123.47,221.23 187.6,483.8 168.34,763.53"
         style="fill:#ee2a25;fill-opacity:1;fill-rule:nonzero;stroke:none"
         transform="matrix(0.13333333,0,0,-0.13333333,0,515.29333)" />
      <path
         id="path14"
         d="m 391.52,1659.35 c -4.864,0 -20.762,16.43 -52.157,52.19 -164.328,187.15 -292.1403,616.23 -232.8,1022.49 59.343,406.26 419.953,812.51 643.625,890.11 62.332,21.63 99.496,29.43 120.675,29.43 54.821,0 2.571,-52.25 2.571,-52.25 C 289.152,3222.45 152.211,2779.67 197.859,2323.2 234.785,1953.94 412.109,1659.35 391.52,1659.35"
         style="fill:#ffe1e0;fill-opacity:1;fill-rule:nonzero;stroke:none"
         transform="matrix(0.13333333,0,0,-0.13333333,0,515.29333)" />
      <path
         id="path15"
         d="m 532.285,1374.97 c -13.316,0 -29.926,13.93 -46.851,48.99 -52.954,109.69 -5.618,119.08 12.164,119.08 3.675,0 6.093,-0.4 6.093,-0.4 77.188,-60.4 65.559,-167.68 28.594,-167.67"
         style="fill:#ffe1e0;fill-opacity:1;fill-rule:nonzero;stroke:none"
         transform="matrix(0.13333333,0,0,-0.13333333,0,515.29333)" />
      <path
         id="path16"
         d="m 2529.09,2584.4 c -30.69,445.93 -275.91,832.47 -626.27,1043.97 173.66,-140.4 600.21,-465.26 603.63,-1146.54 2.31,-458.75 -391.67,-1064.51 -664.64,-1586.85 l 508.59,907.22 c 2.4,4.15 10.45,18.64 10.45,18.64 l -0.1,0.01 c 123.47,221.24 187.6,483.81 168.34,763.55"
         style="fill:#fac3c1;fill-opacity:1;fill-rule:nonzero;stroke:none"
         transform="matrix(0.13333333,0,0,-0.13333333,0,515.29333)" />
    </g>
  </g>
</svg>
