<svg width="193" height="86" viewBox="0 0 193 86" fill="none" xmlns="http://www.w3.org/2000/svg">
<g clip-path="url(#clip0_3429_4457)">
<path d="M64.6009 0.000661595L59.2168 5.38477L64.6009 10.7689L69.985 5.38476L64.6009 0.000661595Z" fill="#FF3C2A"/>
<path d="M64.5989 10.7663L59.2148 16.1504L64.5989 21.5345L69.9831 16.1504L64.5989 10.7663Z" fill="#FF3C2A"/>
<path d="M64.6009 21.5319L59.2168 26.916L64.6009 32.3001L69.985 26.916L64.6009 21.5319Z" fill="#FF3C2A"/>
<path d="M75.3685 10.7663L69.9844 16.1504L75.3685 21.5345L80.7526 16.1504L75.3685 10.7663Z" fill="#FF3C2A"/>
<path d="M75.3685 21.5319L69.9844 26.916L75.3685 32.3001L80.7526 26.916L75.3685 21.5319Z" fill="#FF3C2A"/>
<path d="M53.8333 10.7643L48.4492 16.1484L53.8333 21.5325L59.2174 16.1484L53.8333 10.7643Z" fill="#FF3C2A"/>
<path d="M53.8333 21.5339L48.4492 26.918L53.8333 32.3021L59.2174 26.918L53.8333 21.5339Z" fill="#FF3C2A"/>
<path d="M64.6009 32.2995L59.2168 37.6836L64.6009 43.0677L69.985 37.6836L64.6009 32.2995Z" fill="#FF3C2A"/>
<path d="M62.623 84.3575L60.9955 82.73L74.1379 65.8317L57.2396 78.9741L55.6121 77.3466L68.7545 60.4482L51.8562 73.5907L50.2287 71.9632L63.3711 55.0648L45.5577 68.9197L44.1328 67.0896L69.2733 47.5352L70.9008 49.1627L57.7584 66.061L74.6567 52.9186L76.2842 54.5461L63.1418 71.4444L80.0401 58.302L81.6676 59.9295L68.5252 76.8278L86.3386 62.973L87.7635 64.8031L62.623 84.3575Z" fill="#FF3C2A"/>
<path d="M21.5372 43.0683L0.00390625 64.6016L21.5372 86.1348L43.0704 64.6016L21.5372 43.0683Z" fill="#989898"/>
<path d="M21.5352 -5.56918e-05L0.00190735 21.5332L21.5352 43.0665L43.0684 21.5332L21.5352 -5.56918e-05Z" fill="#585858"/>
<path d="M43.0665 21.5331L21.5332 43.0664L43.0665 64.5997L64.5997 43.0664L43.0665 21.5331Z" fill="#161616"/>
</g>
<path d="M113.902 46.5606L118.171 52.6228H115.511L112.575 48.439L109.636 52.6228H107.127L111.352 46.6923L107.384 41.0173H110.021L112.682 44.8138L115.382 41.0173H117.849L113.902 46.5606Z" fill="#061D21"/>
<path d="M123.483 45.3743C121.275 44.9212 119.172 43.6697 119.172 41.0377C119.172 38.0817 122.218 36.7012 124.855 36.7012C127.728 36.7012 130.153 38.0158 130.774 41.1668H128.414C127.898 39.3331 126.227 38.7509 124.748 38.7509C123.611 38.7509 121.66 39.291 121.66 40.9297C121.66 42.2233 122.668 42.8925 124.02 43.1744L125.863 43.5617C128.351 44.0807 131.075 45.0081 131.075 48.1775C131.075 51.347 128.095 52.9014 125.093 52.9014C121.513 52.9014 119.046 50.8965 118.703 47.6164H121.105C121.555 49.7741 122.969 50.8517 125.18 50.8517C127.217 50.8517 128.611 49.9032 128.611 48.3699C128.611 46.7522 127.045 46.1041 125.395 45.759L123.485 45.369L123.483 45.3743Z" fill="#061D21"/>
<path d="M142.904 44.9424H140.673C140.437 43.6277 139.259 42.7214 137.8 42.7214C136.192 42.7214 134.712 43.9939 134.712 46.8209C134.712 49.6478 136.192 50.9836 137.8 50.9836C139.238 50.9836 140.437 50.1431 140.759 48.7626H143.012C142.54 51.1996 140.309 52.9042 137.758 52.9042C134.413 52.9042 132.334 50.3592 132.334 46.8419C132.334 43.3247 134.5 40.8008 137.91 40.8008C140.547 40.8008 142.564 42.6766 142.907 44.9424" fill="#061D21"/>
<path d="M146.865 42.7015C147.531 41.5581 148.688 40.8019 150.49 40.8019C153.279 40.8019 154.351 42.6145 154.351 45.3097V52.6234H152.122V45.9157C152.122 44.2533 151.865 42.6804 149.741 42.6804C147.79 42.6804 146.868 44.0609 146.868 46.3899V52.6234H144.637V36.9844H146.868V42.7015H146.865Z" fill="#061D21"/>
<path d="M167.223 46.863C167.223 51.0468 164.35 52.9042 161.606 52.9042C158.861 52.9042 156.009 51.0494 156.009 46.863C156.009 42.6766 158.882 40.8008 161.606 40.8008C164.329 40.8008 167.223 42.6556 167.223 46.863ZM161.606 51.0046C163.321 51.0046 164.866 49.6873 164.866 46.863C164.866 44.0387 163.321 42.7003 161.606 42.7003C159.89 42.7003 158.368 43.9307 158.368 46.863C158.368 49.7954 159.935 51.0046 161.606 51.0046Z" fill="#061D21"/>
<path d="M179.567 46.863C179.567 51.0468 176.694 52.9042 173.949 52.9042C171.205 52.9042 168.353 51.0494 168.353 46.863C168.353 42.6766 171.226 40.8008 173.949 40.8008C176.673 40.8008 179.567 42.6556 179.567 46.863ZM173.949 51.0046C175.665 51.0046 177.21 49.6873 177.21 46.863C177.21 44.0387 175.667 42.7003 173.949 42.7003C172.231 42.7003 170.712 43.9307 170.712 46.863C170.712 49.7954 172.278 51.0046 173.949 51.0046Z" fill="#061D21"/>
<path d="M183.625 36.9844H181.394V52.6261H183.625V36.9844Z" fill="#061D21"/>
<path d="M107.763 58.9648H111.696V59.5181H108.36V61.805H111.492V62.3661H108.36V65.4381H107.763V58.9648Z" fill="#061D21"/>
<path d="M112.91 59.8501H112.36V58.9648H112.91V59.8501ZM112.91 65.4381H112.36V60.6352H112.91V65.4381Z" fill="#061D21"/>
<path d="M114.792 61.4459C115.03 60.9901 115.484 60.5527 116.382 60.5527C117.508 60.5527 117.987 61.2325 117.987 62.4101V65.4373H117.437V62.5629C117.437 61.6619 117.199 61.0533 116.238 61.0533C115.413 61.0533 114.792 61.7488 114.792 62.7684V65.4373H114.242V60.6344H114.792V61.4459Z" fill="#061D21"/>
<path d="M120.795 60.5535C121.505 60.5535 122.063 60.8828 122.411 61.4651V58.9648H122.961V65.4381H122.411V64.653C122.066 65.2247 121.505 65.554 120.795 65.554C119.696 65.554 118.8 64.653 118.8 63.0538C118.8 61.4545 119.696 60.5535 120.795 60.5535ZM120.911 61.0541C120.023 61.0541 119.394 61.776 119.394 63.0538C119.394 64.3315 120.023 65.0534 120.911 65.0534C121.628 65.0534 122.445 64.4817 122.445 63.0538C122.445 61.6258 121.628 61.0541 120.911 61.0541Z" fill="#061D21"/>
<path d="M126.166 67V66.5179H126.486C126.955 66.5179 127.143 66.4915 127.408 65.8223L127.559 65.4377L125.731 60.6348H126.352L127.834 64.671L129.272 60.6348H129.867L127.905 65.9198C127.578 66.8472 127.329 67 126.478 67H126.166Z" fill="#061D21"/>
<path d="M132.312 60.5527C133.456 60.5527 134.478 61.3036 134.478 63.053C134.478 64.8024 133.456 65.5532 132.312 65.5532C131.167 65.5532 130.156 64.805 130.156 63.053C130.156 61.301 131.178 60.5527 132.312 60.5527ZM132.312 65.0447C133.226 65.0447 133.891 64.4388 133.891 63.053C133.891 61.6672 133.226 61.0612 132.312 61.0612C131.398 61.0612 130.74 61.6672 130.74 63.053C130.74 64.4388 131.387 65.0447 132.312 65.0447Z" fill="#061D21"/>
<path d="M138.387 64.6605C138.148 65.1162 137.677 65.5536 136.852 65.5536C135.76 65.5536 135.299 64.8765 135.299 63.6962V60.6348H135.849V63.546C135.849 64.4471 136.061 65.0556 136.993 65.0556C137.747 65.0556 138.387 64.3601 138.387 63.3405V60.6348H138.936V65.4377H138.387V64.6605Z" fill="#061D21"/>
<path d="M142.363 61.1957C142.318 61.1878 142.274 61.1878 142.229 61.1878H142.114C141.129 61.1878 140.81 61.9018 140.81 62.9214V65.4374H140.268V60.6345H140.792V61.5092C141.004 60.9454 141.635 60.5977 142.203 60.5977H142.274C142.3 60.5977 142.337 60.5977 142.363 60.6056V61.1957Z" fill="#061D21"/>
<path d="M146.954 62.1079L144.733 58.9648H145.472L147.326 61.581L149.209 58.9648H149.919L147.682 62.0816L150.068 65.4381H149.324L147.308 62.6059L145.275 65.4381H144.565L146.954 62.1079Z" fill="#061D21"/>
<path d="M121.088 29.8889H120.614L118.927 19H113.608L111.924 29.8889H111.45L110.292 19H107L108.844 32.1388H114.346L116.03 21.2526H116.504L118.191 32.1388H123.693L125.537 19H122.245L121.088 29.8889Z" fill="#061D21"/>
<path d="M127.11 23.5045V32.1381H130.429V21.6787H133.901V32.1381H137.22V21.6787H140.692V32.1381H144.011V23.5045V19.002H127.11V23.5045Z" fill="#061D21"/>
<path d="M190.312 36.9417C191.516 36.9417 192.496 37.8374 192.496 39.1442C192.496 40.451 191.516 41.3415 190.312 41.3415C189.107 41.3415 188.122 40.4562 188.122 39.1442C188.122 37.8321 189.102 36.9417 190.312 36.9417ZM190.312 41.0279C191.354 41.0279 192.142 40.2665 192.142 39.1468C192.142 38.0271 191.357 37.2604 190.312 37.2604C189.267 37.2604 188.476 38.0166 188.476 39.1468C188.476 40.2771 189.285 41.0279 190.312 41.0279ZM190.498 39.326C190.479 39.3312 190.456 39.3312 190.435 39.3312H189.83V40.2402H189.492V37.9086H190.191C190.867 37.9086 191.281 38.0139 191.281 38.6173C191.281 38.8807 191.139 39.1284 190.843 39.2496L191.372 40.2402H190.982L190.498 39.326ZM190.325 38.2537H189.83V38.9993H190.354C190.744 38.9993 190.914 38.8755 190.914 38.6252C190.914 38.3248 190.668 38.2563 190.325 38.2563" fill="#061D21"/>
<defs>
<clipPath id="clip0_3429_4457">
<rect width="88" height="86" fill="white"/>
</clipPath>
</defs>
</svg>
