<svg width="182" height="95" viewBox="0 0 182 95" fill="none" xmlns="http://www.w3.org/2000/svg">
<g clip-path="url(#clip0_3601_257)">
<path d="M70.8284 0.000610702L64.9258 5.93848L70.8284 11.8763L76.7311 5.93848L70.8284 0.000610702Z" fill="#EF4133"/>
<path d="M70.8287 11.8749L64.926 17.8127L70.8287 23.7506L76.7313 17.8127L70.8287 11.8749Z" fill="#EF4133"/>
<path d="M70.8287 23.7506L64.926 29.6885L70.8287 35.6263L76.7313 29.6885L70.8287 23.7506Z" fill="#EF4133"/>
<path d="M82.6331 11.8746L76.7305 17.8125L82.6331 23.7504L88.5358 17.8125L82.6331 11.8746Z" fill="#EF4133"/>
<path d="M82.6331 23.7506L76.7305 29.6885L82.6331 35.6263L88.5358 29.6885L82.6331 23.7506Z" fill="#EF4133"/>
<path d="M59.0237 11.8737L53.1211 17.8115L59.0237 23.7494L64.9264 17.8115L59.0237 11.8737Z" fill="#EF4133"/>
<path d="M59.0237 23.7496L53.1211 29.6875L59.0237 35.6254L64.9264 29.6875L59.0237 23.7496Z" fill="#EF4133"/>
<path d="M70.8265 35.6246L64.9238 41.5625L70.8265 47.5004L76.7291 41.5625L70.8265 35.6246Z" fill="#EF4133"/>
<path d="M68.6584 93.0408L66.8742 91.246L81.2844 72.6078L62.7567 87.104L60.9705 85.3092L75.3807 66.671L56.8551 81.1671L55.0689 79.3703L69.4791 60.7341L49.9477 76.0154L48.3848 73.9939L75.95 52.4277L77.7362 54.2226L63.326 72.8608L81.8516 58.3646L83.6378 60.1614L69.2276 78.7996L87.7553 64.3035L89.5395 66.0983L75.1293 84.7365L94.6607 69.4553L96.2236 71.4747L68.6584 93.0408Z" fill="#EF4133"/>
<path d="M23.6092 47.5L0 71.25L23.6092 95L47.2184 71.25L23.6092 47.5Z" fill="#949B9B"/>
<path d="M23.6092 -0.00100885L0 23.749L23.6092 47.4991L47.2184 23.749L23.6092 -0.00100885Z" fill="#4E5B5B"/>
<path d="M47.2166 23.7509L23.6074 47.501L47.2166 71.251L70.8258 47.501L47.2166 23.7509Z" fill="#061D21"/>
<path d="M121.637 49.0591L124.916 53.7152H122.872L120.617 50.5019L118.361 53.7152H116.434L119.678 49.1603L116.631 44.8018H118.656L120.7 47.7176L122.774 44.8018H124.669L121.637 49.0591Z" fill="#FAF9F6"/>
<path d="M128.995 48.1486C127.299 47.8005 125.684 46.8394 125.684 44.8179C125.684 42.5476 128.024 41.4873 130.049 41.4873C132.256 41.4873 134.118 42.497 134.595 44.9171H132.783C132.387 43.5088 131.103 43.0616 129.967 43.0616C129.094 43.0616 127.595 43.4764 127.595 44.735C127.595 45.7285 128.37 46.2425 129.408 46.459L130.824 46.7564C132.734 47.1551 134.826 47.8673 134.826 50.3015C134.826 52.7358 132.537 53.9296 130.232 53.9296C127.483 53.9296 125.588 52.3898 125.324 49.8706H127.169C127.515 51.5278 128.601 52.3554 130.299 52.3554C131.864 52.3554 132.934 51.6269 132.934 50.4493C132.934 49.2069 131.731 48.7091 130.464 48.444L128.997 48.1445L128.995 48.1486Z" fill="#FAF9F6"/>
<path d="M143.913 47.8166H142.199C142.018 46.8069 141.113 46.1109 139.993 46.1109C138.758 46.1109 137.621 47.0882 137.621 49.2594C137.621 51.4306 138.758 52.4565 139.993 52.4565C141.097 52.4565 142.018 51.811 142.266 50.7507H143.996C143.634 52.6224 141.92 53.9316 139.961 53.9316C137.392 53.9316 135.795 51.9769 135.795 49.2756C135.795 46.5742 137.458 44.6357 140.077 44.6357C142.103 44.6357 143.652 46.0765 143.915 47.8166" fill="#FAF9F6"/>
<path d="M146.952 46.095C147.463 45.2168 148.352 44.6361 149.736 44.6361C151.878 44.6361 152.701 46.0283 152.701 48.0983V53.7154H150.989V48.5637C150.989 47.2869 150.792 46.0788 149.161 46.0788C147.662 46.0788 146.954 47.1391 146.954 48.9279V53.7154H145.24V41.7041H146.954V46.095H146.952Z" fill="#FAF9F6"/>
<path d="M162.592 49.2918C162.592 52.505 160.385 53.9316 158.277 53.9316C156.169 53.9316 153.979 52.5071 153.979 49.2918C153.979 46.0765 156.185 44.6357 158.277 44.6357C160.369 44.6357 162.592 46.0603 162.592 49.2918ZM158.277 52.4727C159.595 52.4727 160.781 51.4609 160.781 49.2918C160.781 47.1226 159.595 46.0947 158.277 46.0947C156.96 46.0947 155.791 47.0396 155.791 49.2918C155.791 51.5439 156.994 52.4727 158.277 52.4727Z" fill="#FAF9F6"/>
<path d="M172.072 49.2918C172.072 52.505 169.866 53.9316 167.757 53.9316C165.649 53.9316 163.459 52.5071 163.459 49.2918C163.459 46.0765 165.666 44.6357 167.757 44.6357C169.849 44.6357 172.072 46.0603 172.072 49.2918ZM167.757 52.4727C169.075 52.4727 170.262 51.4609 170.262 49.2918C170.262 47.1226 169.077 46.0947 167.757 46.0947C166.438 46.0947 165.271 47.0396 165.271 49.2918C165.271 51.5439 166.474 52.4727 167.757 52.4727Z" fill="#FAF9F6"/>
<path d="M175.186 41.7041H173.473V53.7175H175.186V41.7041Z" fill="#FAF9F6"/>
<path d="M116.92 58.5859H119.941V59.0109H117.379V60.7672H119.784V61.1982H117.379V63.5576H116.92V58.5859Z" fill="#FAF9F6"/>
<path d="M120.876 59.2658H120.453V58.5859H120.876V59.2658ZM120.876 63.5576H120.453V59.8688H120.876V63.5576Z" fill="#FAF9F6"/>
<path d="M122.321 60.4916C122.504 60.1416 122.852 59.8057 123.542 59.8057C124.407 59.8057 124.775 60.3277 124.775 61.2322V63.5572H124.352V61.3496C124.352 60.6575 124.169 60.1901 123.431 60.1901C122.798 60.1901 122.321 60.7243 122.321 61.5074V63.5572H121.898V59.8684H122.321V60.4916Z" fill="#FAF9F6"/>
<path d="M126.929 59.8061C127.474 59.8061 127.903 60.059 128.17 60.5062V58.5859H128.593V63.5576H128.17V62.9546C127.905 63.3937 127.474 63.6466 126.929 63.6466C126.084 63.6466 125.396 62.9546 125.396 61.7264C125.396 60.4981 126.084 59.8061 126.929 59.8061ZM127.018 60.1905C126.336 60.1905 125.853 60.745 125.853 61.7264C125.853 62.7077 126.336 63.2622 127.018 63.2622C127.569 63.2622 128.196 62.8231 128.196 61.7264C128.196 60.6296 127.569 60.1905 127.018 60.1905Z" fill="#FAF9F6"/>
<path d="M131.055 64.7569V64.3866H131.3C131.66 64.3866 131.805 64.3663 132.008 63.8524L132.125 63.557L130.721 59.8682H131.197L132.336 62.9681L133.44 59.8682H133.897L132.39 63.9272C132.139 64.6395 131.948 64.7569 131.294 64.7569H131.055Z" fill="#FAF9F6"/>
<path d="M135.778 59.8057C136.658 59.8057 137.442 60.3824 137.442 61.7259C137.442 63.0695 136.658 63.6462 135.778 63.6462C134.899 63.6462 134.123 63.0715 134.123 61.7259C134.123 60.3803 134.908 59.8057 135.778 59.8057ZM135.778 63.2557C136.481 63.2557 136.991 62.7903 136.991 61.7259C136.991 60.6616 136.481 60.1962 135.778 60.1962C135.076 60.1962 134.572 60.6616 134.572 61.7259C134.572 62.7903 135.068 63.2557 135.778 63.2557Z" fill="#FAF9F6"/>
<path d="M140.444 62.96C140.261 63.3101 139.899 63.646 139.265 63.646C138.426 63.646 138.072 63.126 138.072 62.2194V59.8682H138.495V62.1041C138.495 62.7961 138.658 63.2636 139.374 63.2636C139.953 63.2636 140.444 62.7294 140.444 61.9463V59.8682H140.866V63.557H140.444V62.96Z" fill="#FAF9F6"/>
<path d="M143.496 60.2992C143.462 60.2931 143.428 60.2931 143.393 60.2931H143.305C142.548 60.2931 142.303 60.8415 142.303 61.6245V63.557H141.887V59.8682H142.289V60.54C142.452 60.1069 142.937 59.8398 143.373 59.8398H143.428C143.448 59.8398 143.476 59.8398 143.496 59.8459V60.2992Z" fill="#FAF9F6"/>
<path d="M147.022 60.9999L145.316 58.5859H145.883L147.308 60.5952L148.754 58.5859H149.299L147.581 60.9797L149.414 63.5576H148.842L147.294 61.3824L145.733 63.5576H145.188L147.022 60.9999Z" fill="#FAF9F6"/>
<path d="M127.156 36.2546H126.792L125.496 27.8916H121.411L120.118 36.2546H119.753L118.864 27.8916H116.336L117.752 37.9827H121.978L123.272 29.6217H123.636L124.931 37.9827H129.157L130.573 27.8916H128.045L127.156 36.2546Z" fill="#FAF9F6"/>
<path d="M131.781 31.3517V37.9826H134.33V29.9494H136.997V37.9826H139.546V29.9494H142.213V37.9826H144.761V31.3517V27.8936H131.781V31.3517Z" fill="#FAF9F6"/>
<path d="M180.322 41.6719C181.247 41.6719 182 42.3599 182 43.3635C182 44.3671 181.247 45.0511 180.322 45.0511C179.397 45.0511 178.641 44.3712 178.641 43.3635C178.641 42.3558 179.393 41.6719 180.322 41.6719ZM180.322 44.8103C181.123 44.8103 181.728 44.2255 181.728 43.3655C181.728 42.5055 181.125 41.9167 180.322 41.9167C179.52 41.9167 178.912 42.4975 178.912 43.3655C178.912 44.2336 179.534 44.8103 180.322 44.8103ZM180.465 43.5031C180.451 43.5072 180.433 43.5072 180.417 43.5072H179.952V44.2053H179.693V42.4145H180.23C180.749 42.4145 181.066 42.4954 181.066 42.9588C181.066 43.1612 180.958 43.3514 180.731 43.4444L181.137 44.2053H180.837L180.465 43.5031ZM180.332 42.6796H179.952V43.2522H180.354C180.654 43.2522 180.785 43.1571 180.785 42.9649C180.785 42.7342 180.596 42.6816 180.332 42.6816" fill="#FAF9F6"/>
</g>
<defs>
<clipPath id="clip0_3601_257">
<rect width="182" height="95" fill="white"/>
</clipPath>
</defs>
</svg>
